<?xml version="1.0" encoding="utf-8"?>
<!-- Generator: Adobe Illustrator 15.0.2, SVG Export Plug-In . SVG Version: 6.00 Build 0)  -->
<!DOCTYPE svg PUBLIC "-//W3C//DTD SVG 1.1//EN" "http://www.w3.org/Graphics/SVG/1.1/DTD/svg11.dtd">
<svg version="1.1" xmlns="http://www.w3.org/2000/svg" xmlns:xlink="http://www.w3.org/1999/xlink" x="0px" y="0px"
	 width="721.617px" height="721.617px" viewBox="0 0 721.617 721.617" enable-background="new 0 0 721.617 721.617"
	 xml:space="preserve">
<g id="background_color">
	<g>
		<path fill="#1E4C7C" d="M360.809,714.283c-194.909,0-353.475-158.569-353.475-353.475S165.899,7.334,360.809,7.334
			c194.905,0,353.475,158.569,353.475,353.475S555.714,714.283,360.809,714.283z M29.982,360.809 M691.635,360.809"/>
	</g>
</g>
<g id="logo">
	<path fill="#FFFFFF" d="M232.306,244.412v8.441c0,20.329-10.165,31.943-29.768,31.943c-19.604,0-29.769-11.614-29.769-31.943
		v-66.081c0-20.326,10.165-31.944,29.769-31.944c19.603,0,29.768,11.618,29.768,31.944v3.903h-18.877v-5.172
		c0-9.075-3.992-12.522-10.35-12.522c-6.351,0-10.343,3.447-10.343,12.522v68.617c0,9.082,3.992,12.345,10.343,12.345
		c6.357,0,10.35-3.263,10.35-12.345v-9.709H232.306z"/>
	<path fill="#FFFFFF" d="M242.837,186.772c0-20.326,10.71-31.944,30.312-31.944c19.604,0,30.316,11.618,30.316,31.944v66.081
		c0,20.329-10.713,31.943-30.316,31.943c-19.603,0-30.312-11.614-30.312-31.943V186.772z M262.803,254.121
		c0,9.082,3.993,12.523,10.347,12.523c6.354,0,10.35-3.441,10.35-12.523v-68.617c0-9.075-3.995-12.522-10.35-12.522
		c-6.354,0-10.347,3.447-10.347,12.522V254.121z"/>
	<path fill="#FFFFFF" d="M336.321,209.354H362.1v18.15h-25.778v55.844h-19.966v-127.07h52.821v18.15h-32.855V209.354z"/>
	<path fill="#FFFFFF" d="M398.767,209.354h25.775v18.15h-25.775v55.844h-19.97v-127.07h52.825v18.15h-32.855V209.354z"/>
	<path fill="#FFFFFF" d="M461.211,209.309h27.414v18.168h-27.414v37.721h34.491v18.15h-54.46v-127.07h54.46v18.15h-34.491V209.309z"
		/>
	<path fill="#FFFFFF" d="M528.013,209.309h27.413v18.168h-27.413v37.721h34.493v18.15H508.05v-127.07h54.456v18.15h-34.493V209.309z
		"/>
	<path fill="#FFFFFF" d="M239.025,435.327h-20.15l-3.451-23.058H190.92l-3.447,23.058h-18.336l20.333-127.073h29.224
		L239.025,435.327z M193.463,395.025h19.239l-9.623-64.262L193.463,395.025z"/>
	<path fill="#FFFFFF" d="M266.076,343.293v92.034h-17.976V308.254h25.053l20.511,76.062v-76.062h17.79v127.073h-20.511
		L266.076,343.293z"/>
	<path fill="#FFFFFF" d="M325.79,308.254h31.591c19.966,0,29.771,11.076,29.771,31.409v64.262c0,20.326-9.806,31.402-29.771,31.402
		H325.79V308.254z M345.763,326.411v90.763h11.255c6.351,0,10.165-3.27,10.165-12.341v-66.081c0-9.071-3.814-12.341-10.165-12.341
		H345.763z"/>
	<path fill="#FFFFFF" d="M230.562,546.348v8.44c0,20.327-10.164,31.948-29.771,31.948s-29.771-11.621-29.771-31.948v-66.077
		c0-20.33,10.165-31.947,29.771-31.947s29.771,11.617,29.771,31.947v3.896h-18.88v-5.168c0-9.072-3.992-12.522-10.346-12.522
		c-6.354,0-10.347,3.45-10.347,12.522v68.617c0,9.082,3.992,12.345,10.347,12.345c6.354,0,10.346-3.263,10.346-12.345v-9.709
		H230.562z"/>
	<path opacity="0.75" fill="#FFFFFF" d="M241.09,488.711c0-20.33,10.706-31.947,30.31-31.947c19.606,0,30.315,11.617,30.315,31.947
		v66.077c0,20.327-10.709,31.948-30.315,31.948c-19.604,0-30.31-11.621-30.31-31.948V488.711z M261.057,556.057
		c0,9.082,3.992,12.526,10.343,12.526c6.357,0,10.35-3.444,10.35-12.526v-68.617c0-9.072-3.992-12.522-10.35-12.522
		c-6.351,0-10.343,3.45-10.343,12.522V556.057z"/>
	<g opacity="0.75">
		<path fill="#FFFFFF" d="M313.182,474.19c15.429,0,18.876-7.44,21.961-15.974h13.434v127.066H328.61v-96.936h-15.429V474.19z"/>
	</g>
	<path fill="#FFFFFF" d="M368.992,458.217h-12.094v18.14h3.629v0.01h8.102c6.354,0,10.164,3.27,10.164,12.345v66.077
		c0,9.072-3.811,12.345-10.164,12.345h-8.102h-3.153h-0.476v18.15h12.094c19.966,0,29.771-11.073,29.771-31.403v-64.258
		C398.763,469.289,388.958,458.217,368.992,458.217z"/>
	<g>
		<path fill="#FFFFFF" d="M360.809,718.426C163.51,718.426,3,557.912,3,360.617S163.51,2.809,360.809,2.809
			c197.295,0,357.809,160.514,357.809,357.809S558.104,718.426,360.809,718.426z M360.809,25.734
			c-184.657,0-334.883,150.226-334.883,334.883S176.151,695.5,360.809,695.5c184.653,0,334.883-150.226,334.883-334.883
			S545.462,25.734,360.809,25.734z"/>
	</g>
	<path fill="#FFFFFF" d="M437.132,511.246h27.413v18.168h-27.413v37.721h34.493v18.15h-54.456v-127.07h54.456v18.15h-34.493V511.246
		z"/>
</g>
</svg>
