<?xml version="1.0" encoding="utf-8"?>
<!-- Generator: Adobe Illustrator 20.1.0, SVG Export Plug-In . SVG Version: 6.00 Build 0)  -->
<svg version="1.1" xmlns="http://www.w3.org/2000/svg" xmlns:xlink="http://www.w3.org/1999/xlink" x="0px" y="0px"
	 viewBox="0 0 63.1 61.6" style="enable-background:new 0 0 63.1 61.6;" xml:space="preserve">
<style type="text/css">
	.st0{display:none;opacity:0.5;}
	.st1{display:inline;}
	.st2{fill:none;stroke:#FFFFFF;stroke-width:2;stroke-linejoin:round;stroke-miterlimit:10;}
	.st3{opacity:0.5;}
	.st4{fill:none;stroke:#FFFFFF;stroke-width:2;stroke-miterlimit:10;}
	.st5{display:inline;fill:none;stroke:#FFFFFF;stroke-width:2;stroke-miterlimit:10;}
</style>
<g id="Layer_1" class="st0">
	<g class="st1">
		<path class="st2" d="M2.5,11c0-3.9,3.1-7,7-7h44c3.9,0,7,3.1,7,7v7h-58V11z"/>
		<rect x="9.5" y="18" class="st2" width="44" height="32"/>
		<g>
			<path class="st2" d="M2.5,50c0,3.3,4,8,9,8h40c5,0,9-4.7,9-8H2.5z"/>
		</g>
		<line class="st2" x1="34.5" y1="25" x2="34.5" y2="27"/>
		<line class="st2" x1="28.5" y1="25" x2="28.5" y2="27"/>
		<path class="st2" d="M36.5,46h-10c0,0-4-5-4-14h18C40.5,41,36.5,46,36.5,46z"/>
		<g>
			<path class="st2" d="M39.5,21c0,1.7-1.3,3-3,3h-10c-1.7,0-3-1.3-3-3v-3h16V21z"/>
		</g>
		<g>
			<path class="st2" d="M20.5,46c-2.2,0-4,1.8-4,4h30c0-2.2-1.8-4-4-4H20.5z"/>
		</g>
		<rect x="23.5" y="8" class="st2" width="16" height="6"/>
		<line class="st2" x1="18.5" y1="11" x2="16.5" y2="11"/>
		<line class="st2" x1="14.5" y1="11" x2="12.5" y2="11"/>
		<line class="st2" x1="10.5" y1="11" x2="8.5" y2="11"/>
		<line class="st2" x1="54.5" y1="11" x2="52.5" y2="11"/>
		<line class="st2" x1="50.5" y1="11" x2="48.5" y2="11"/>
		<line class="st2" x1="46.5" y1="11" x2="44.5" y2="11"/>
		<line class="st2" x1="25.5" y1="54" x2="37.5" y2="54"/>
		<path class="st2" d="M40.5,32h2c1.1,0,2,0.9,2,2v4c0,1.1-0.9,2-2,2h-3"/>
	</g>
</g>
<g id="Layer_2" class="st3">
	<path class="st4" d="M50.9,57c-7.6,0-32.1,0-39.7,0s-9.5-5.7-9.5-5.7h58.6C60.3,51.3,58.4,57,50.9,57z"/>
	<path class="st4" d="M42.3,47.5H19.7c0-7.6-7.6-11.3-7.6-30.3c1.9,0,35.9,0,37.8,0C49.9,36.2,42.3,40,42.3,47.5z"/>
	<path class="st4" d="M53.7,41.9V23h0.9c1.6,0,2.8,1.3,2.8,2.8v7.6V39c0,1.6-1.3,2.8-2.8,2.8H53.7z"/>
	<line class="st4" x1="53.7" y1="23" x2="49.9" y2="23"/>
	<line class="st4" x1="53.7" y1="41.9" x2="44.2" y2="41.9"/>
	<line class="st4" x1="19.7" y1="47.5" x2="19.7" y2="51.3"/>
	<line class="st4" x1="42.3" y1="47.5" x2="42.3" y2="51.3"/>
	<path class="st4" d="M35.7,14.5c0-0.9,1.9-2.8,1.9-4.7S35.7,5.9,35.7,5"/>
	<path class="st4" d="M30.1,14.5c0-0.9,1.9-2.8,1.9-4.7S30.1,5.9,30.1,5"/>
	<path class="st4" d="M24.4,14.5c0-0.9,1.9-2.8,1.9-4.7S24.4,5.9,24.4,5"/>
</g>
<g id="Layer_3" class="st0">
	<polygon class="st5" points="46,60 17.9,60 14.2,15.1 49.7,15.1 	"/>
	<polyline class="st5" points="14.2,15.1 11.4,15.1 12.3,9.5 51.6,9.5 52.5,15.1 49.7,15.1 	"/>
	<polyline class="st5" points="17.9,9.5 17.9,5.7 46,5.7 46,9.5 	"/>
	<polygon class="st5" points="46.2,52.5 17.7,52.5 15.2,22.6 48.7,22.6 	"/>
	<circle class="st5" cx="31.9" cy="37.5" r="6.5"/>
	<line class="st5" x1="31" y1="37.5" x2="32.9" y2="37.5"/>
	<polyline class="st5" points="21.7,5.7 21.7,2 27.3,2 27.3,5.7 	"/>
</g>
<g id="Layer_4" class="st0">
	<rect x="13.5" y="7.8" class="st5" width="34" height="44"/>
	<path class="st5" d="M13.5,27.8c0,0-8-13-8-20h8V27.8z"/>
	<rect x="11.5" y="51.8" class="st5" width="38" height="8"/>
	<line class="st5" x1="29.5" y1="55.8" x2="31.5" y2="55.8"/>
	<line class="st5" x1="30.5" y1="23.8" x2="33.5" y2="23.8"/>
	<line class="st5" x1="30.5" y1="19.8" x2="33.5" y2="19.8"/>
	<line class="st5" x1="30.5" y1="27.8" x2="33.5" y2="27.8"/>
	<line class="st5" x1="30.5" y1="31.8" x2="33.5" y2="31.8"/>
	<line class="st5" x1="30.5" y1="35.8" x2="33.5" y2="35.8"/>
	<line class="st5" x1="30.5" y1="39.8" x2="33.5" y2="39.8"/>
	<path class="st5" d="M47.5,37.8h7c1.7,0,3-1.3,3-3v-24c0-1.7-1.3-3-3-3h-7"/>
	<path class="st5" d="M47.5,33.8h4c1.1,0,2-0.9,2-2v-18c0-1.1-0.9-2-2-2h-4"/>
	<path class="st5" d="M13.5,7.8v-4c0-1.1,0.9-2,2-2h30c1.1,0,2,0.9,2,2v4"/>
</g>
</svg>
