<?xml version="1.0" encoding="utf-8"?>
<!-- Generator: Adobe Illustrator 20.1.0, SVG Export Plug-In . SVG Version: 6.00 Build 0)  -->
<svg version="1.1" xmlns="http://www.w3.org/2000/svg" xmlns:xlink="http://www.w3.org/1999/xlink" x="0px" y="0px"
	 viewBox="0 0 63.1 61.6" style="enable-background:new 0 0 63.1 61.6;" xml:space="preserve">
<style type="text/css">
	.st0{display:none;opacity:0.5;}
	.st1{display:inline;fill:none;stroke:#FFFFFF;stroke-width:2;stroke-linejoin:round;stroke-miterlimit:10;}
	.st2{display:inline;}
	.st3{fill:none;stroke:#FFFFFF;stroke-width:2;stroke-linejoin:round;stroke-miterlimit:10;}
	.st4{opacity:0.5;}
	.st5{fill:none;stroke:#FFFFFF;stroke-width:2;stroke-miterlimit:10;}
</style>
<g id="Layer_1" class="st0">
	<path class="st1" d="M3,10c0-3.9,3.1-7,7-7h44c3.9,0,7,3.1,7,7v7H3V10z"/>
	<rect x="10" y="17" class="st1" width="44" height="32"/>
	<g class="st2">
		<path class="st3" d="M3,49c0,3.3,4,8,9,8h40c5,0,9-4.7,9-8H3z"/>
	</g>
	<line class="st1" x1="35" y1="24" x2="35" y2="26"/>
	<line class="st1" x1="29" y1="24" x2="29" y2="26"/>
	<path class="st1" d="M37,45H27c0,0-4-5-4-14h18C41,40,37,45,37,45z"/>
	<g class="st2">
		<path class="st3" d="M40,20c0,1.7-1.3,3-3,3H27c-1.7,0-3-1.3-3-3v-3h16V20z"/>
	</g>
	<g class="st2">
		<path class="st3" d="M21,45c-2.2,0-4,1.8-4,4h30c0-2.2-1.8-4-4-4H21z"/>
	</g>
	<rect x="24" y="7" class="st1" width="16" height="6"/>
	<line class="st1" x1="19" y1="10" x2="17" y2="10"/>
	<line class="st1" x1="15" y1="10" x2="13" y2="10"/>
	<line class="st1" x1="11" y1="10" x2="9" y2="10"/>
	<line class="st1" x1="55" y1="10" x2="53" y2="10"/>
	<line class="st1" x1="51" y1="10" x2="49" y2="10"/>
	<line class="st1" x1="47" y1="10" x2="45" y2="10"/>
	<line class="st1" x1="26" y1="53" x2="38" y2="53"/>
	<path class="st1" d="M41,31h2c1.1,0,2,0.9,2,2v4c0,1.1-0.9,2-2,2h-3"/>
</g>
<g id="Layer_2" class="st0">
	<path class="st1" d="M50.9,56c-7.6,0-32.1,0-39.7,0s-9.5-5.7-9.5-5.7h58.6C60.3,50.3,58.4,56,50.9,56z"/>
	<path class="st1" d="M42.3,46.5H19.7c0-7.6-7.6-11.3-7.6-30.3c1.9,0,35.9,0,37.8,0C49.9,35.2,42.3,39,42.3,46.5z"/>
	<path class="st1" d="M53.7,40.9V22h0.9c1.6,0,2.8,1.3,2.8,2.8v7.6V38c0,1.6-1.3,2.8-2.8,2.8H53.7z"/>
	<line class="st1" x1="24.4" y1="16.3" x2="24.4" y2="22"/>
	<rect x="21.5" y="22" class="st1" width="5.7" height="7.6"/>
	<line class="st1" x1="53.7" y1="22" x2="49.9" y2="22"/>
	<line class="st1" x1="53.7" y1="40.9" x2="44.2" y2="40.9"/>
	<line class="st1" x1="19.7" y1="46.5" x2="19.7" y2="50.3"/>
	<line class="st1" x1="42.3" y1="46.5" x2="42.3" y2="50.3"/>
	<line class="st1" x1="30.1" y1="42.8" x2="31.9" y2="42.8"/>
	<line class="st1" x1="26.3" y1="42.8" x2="28.2" y2="42.8"/>
	<line class="st1" x1="33.8" y1="42.8" x2="35.7" y2="42.8"/>
	<path class="st1" d="M35.7,13.5c0-0.9,1.9-2.8,1.9-4.7S35.7,4.9,35.7,4"/>
	<path class="st1" d="M30.1,13.5c0-0.9,1.9-2.8,1.9-4.7S30.1,4.9,30.1,4"/>
	<path class="st1" d="M24.4,13.5c0-0.9,1.9-2.8,1.9-4.7S24.4,4.9,24.4,4"/>
</g>
<g id="Layer_3" class="st4">
	<polygon class="st5" points="46,60 17.9,60 14.2,15.1 49.7,15.1 	"/>
	<polyline class="st5" points="14.2,15.1 11.4,15.1 12.3,9.5 51.6,9.5 52.5,15.1 49.7,15.1 	"/>
	<polyline class="st5" points="17.9,9.5 17.9,5.7 46,5.7 46,9.5 	"/>
	<polygon class="st5" points="46.2,52.5 17.7,52.5 15.2,22.6 48.7,22.6 	"/>
	<circle class="st5" cx="31.9" cy="37.5" r="6.5"/>
	<line class="st5" x1="31" y1="37.5" x2="32.9" y2="37.5"/>
	<polyline class="st5" points="21.7,5.7 21.7,2 27.3,2 27.3,5.7 	"/>
</g>
</svg>
