<?xml version="1.0" encoding="utf-8"?>
<!-- Generator: Adobe Illustrator 20.1.0, SVG Export Plug-In . SVG Version: 6.00 Build 0)  -->
<svg version="1.1" id="Layer_1" xmlns="http://www.w3.org/2000/svg" xmlns:xlink="http://www.w3.org/1999/xlink" x="0px" y="0px"
	 viewBox="0 0 721.6 721.6" style="enable-background:new 0 0 721.6 721.6;" xml:space="preserve">
<style type="text/css">
	.st0{opacity:0.1;}
	.st1{fill:#FFFFFF;}
	.st2{opacity:0.75;fill:#FFFFFF;enable-background:new    ;}
	.st3{opacity:0.75;}
</style>
<g id="background_color" class="st0">
	<g>
		<path class="st1" d="M360.8,714.3C165.9,714.3,7.3,555.7,7.3,360.8S165.9,7.3,360.8,7.3c194.9,0,353.5,158.6,353.5,353.5
			S555.7,714.3,360.8,714.3z"/>
	</g>
</g>
<g id="logo">
	<path class="st1" d="M232.3,244.4v8.4c0,20.3-10.2,31.9-29.8,31.9c-19.6,0-29.8-11.6-29.8-31.9v-66.1c0-20.3,10.2-31.9,29.8-31.9
		c19.6,0,29.8,11.6,29.8,31.9v3.9h-18.9v-5.2c0-9.1-4-12.5-10.4-12.5c-6.4,0-10.3,3.4-10.3,12.5v68.6c0,9.1,4,12.3,10.3,12.3
		c6.4,0,10.4-3.3,10.4-12.3v-9.7L232.3,244.4L232.3,244.4z"/>
	<path class="st1" d="M242.8,186.8c0-20.3,10.7-31.9,30.3-31.9c19.6,0,30.3,11.6,30.3,31.9v66.1c0,20.3-10.7,31.9-30.3,31.9
		s-30.3-11.6-30.3-31.9L242.8,186.8L242.8,186.8z M262.8,254.1c0,9.1,4,12.5,10.3,12.5s10.4-3.4,10.4-12.5v-68.6
		c0-9.1-4-12.5-10.4-12.5c-6.4,0-10.3,3.4-10.3,12.5L262.8,254.1L262.8,254.1z"/>
	<path class="st1" d="M336.3,209.4h25.8v18.1h-25.8v55.8h-20V156.3h52.8v18.1h-32.9L336.3,209.4L336.3,209.4z"/>
	<path class="st1" d="M398.8,209.4h25.8v18.1h-25.8v55.8h-20V156.3h52.8v18.1h-32.9V209.4z"/>
	<path class="st1" d="M461.2,209.3h27.4v18.2h-27.4v37.7h34.5v18.1h-54.5V156.3h54.5v18.1h-34.5V209.3z"/>
	<path class="st1" d="M528,209.3h27.4v18.2H528v37.7h34.5v18.1H508V156.3h54.5v18.1H528V209.3z"/>
	<path class="st1" d="M239,435.3h-20.1l-3.5-23.1h-24.5l-3.4,23.1h-18.3l20.3-127.1h29.2L239,435.3z M193.5,395h19.2l-9.6-64.3
		L193.5,395z"/>
	<path class="st1" d="M266.1,343.3v92h-18V308.3h25.1l20.5,76.1v-76.1h17.8v127.1h-20.5L266.1,343.3z"/>
	<path class="st1" d="M325.8,308.3h31.6c20,0,29.8,11.1,29.8,31.4v64.3c0,20.3-9.8,31.4-29.8,31.4h-31.6V308.3z M345.8,326.4v90.8
		H357c6.4,0,10.2-3.3,10.2-12.3v-66.1c0-9.1-3.8-12.3-10.2-12.3H345.8z"/>
	<path class="st1" d="M230.6,546.3v8.4c0,20.3-10.2,31.9-29.8,31.9S171,575.1,171,554.8v-66.1c0-20.3,10.2-31.9,29.8-31.9
		s29.8,11.6,29.8,31.9v3.9h-18.9v-5.2c0-9.1-4-12.5-10.3-12.5c-6.4,0-10.3,3.5-10.3,12.5v68.6c0,9.1,4,12.3,10.3,12.3
		c6.4,0,10.3-3.3,10.3-12.3v-9.7L230.6,546.3L230.6,546.3z"/>
	<path class="st2" d="M241.1,488.7c0-20.3,10.7-31.9,30.3-31.9c19.6,0,30.3,11.6,30.3,31.9v66.1c0,20.3-10.7,31.9-30.3,31.9
		c-19.6,0-30.3-11.6-30.3-31.9V488.7z M261.1,556.1c0,9.1,4,12.5,10.3,12.5c6.4,0,10.4-3.4,10.4-12.5v-68.6c0-9.1-4-12.5-10.4-12.5
		c-6.4,0-10.3,3.5-10.3,12.5V556.1z"/>
	<g class="st3">
		<path class="st1" d="M313.2,474.2c15.4,0,18.9-7.4,22-16h13.4v127.1h-20v-96.9h-15.4L313.2,474.2L313.2,474.2z"/>
	</g>
	<path class="st1" d="M369,458.2h-12.1v18.1h3.6v0h8.1c6.4,0,10.2,3.3,10.2,12.3v66.1c0,9.1-3.8,12.3-10.2,12.3h-8.1h-3.2h-0.5v18.2
		H369c20,0,29.8-11.1,29.8-31.4v-64.3C398.8,469.3,389,458.2,369,458.2z"/>
	<g>
		<path class="st1" d="M360.8,718.4C163.5,718.4,3,557.9,3,360.6S163.5,2.8,360.8,2.8c197.3,0,357.8,160.5,357.8,357.8
			S558.1,718.4,360.8,718.4z M360.8,25.7C176.2,25.7,25.9,176,25.9,360.6s150.2,334.9,334.9,334.9c184.7,0,334.9-150.2,334.9-334.9
			S545.5,25.7,360.8,25.7z"/>
	</g>
	<path class="st1" d="M437.1,511.2h27.4v18.2h-27.4v37.7h34.5v18.2h-54.5V458.2h54.5v18.1h-34.5V511.2z"/>
</g>
</svg>
